<?xml version="1.0" encoding="UTF-8"?>
<svg id="Layer_1" data-name="Layer 1" xmlns="http://www.w3.org/2000/svg" xmlns:xlink="http://www.w3.org/1999/xlink" viewBox="0 0 474 125.23">
  <defs>
    <style>
      .cls-1 {
        fill: url(#linear-gradient);
      }

      .cls-1, .cls-2 {
        stroke-width: 0px;
      }

      .cls-2 {
        fill: #635bff;
      }
    </style>
    <linearGradient id="linear-gradient" x1="8.52" y1="53.62" x2="72" y2="53.62" gradientTransform="translate(0 139.49) scale(1 -1)" gradientUnits="userSpaceOnUse">
      <stop offset="0" stop-color="#635bff"/>
      <stop offset=".13" stop-color="#5e57f8"/>
      <stop offset=".31" stop-color="#524de6"/>
      <stop offset=".52" stop-color="#3e3dc8"/>
      <stop offset=".75" stop-color="#22279e"/>
      <stop offset="1" stop-color="#000c6a"/>
    </linearGradient>
  </defs>
  <g>
    <path class="cls-2" d="M72.23,76.28c-.77-2.33-2.4-3.89-4.43-5.11-1.12-.68-2.21-1.41-3.31-2.13-5.54-3.6-11.06-7.22-16.54-10.91-4.65-3.14-9.39-6.15-14.09-9.22-5.63-3.67-11.35-7.2-17.06-10.72-1.26-.77-2.54-1.5-3.66-2.47-3.2-2.79-4.71-6.33-4.59-10.54.18-6.19,4.84-11.62,11.12-12.98,4.1-.89,7.9-.11,11.44,2.16,4.95,3.18,9.94,6.3,14.9,9.47,7.11,4.54,14.23,9.07,21.26,13.73,3.27,2.17,4.92,5.35,4.94,9.24.07,9.55.02,19.1.02,28.65v.83h0Z"/>
    <path class="cls-1" d="M23.16,111.02c-8.77.02-15.74-7.85-14.5-16.5.64-4.45,3-7.88,6.76-10.32,2.94-1.91,5.9-3.79,8.85-5.69,9.08-5.85,18.13-11.73,27.24-17.53.57-.36.92-.36,1.47,0,5.17,3.39,10.37,6.74,15.55,10.1,1.43.93,2.5,2.16,3.1,3.79.47,1.27.48,2.53.09,3.8-.76,2.49-2.32,4.33-4.49,5.77-4.25,2.81-8.44,5.7-12.66,8.55-7.49,5.07-14.99,10.12-22.47,15.21-2.71,1.85-5.67,2.81-8.94,2.81h0Z"/>
  </g>
  <g>
    <g>
      <path class="cls-2" d="M280.98,112.21c1.04,0,1.89-.53,2.45-1.37l1.76,1.39c-.98,1.39-2.3,2.34-4.21,2.34-3.02,0-5.36-2.5-5.36-5.58s2.34-5.56,5.36-5.56c1.91,0,3.23.94,4.21,2.34l-1.76,1.39c-.57-.84-1.42-1.37-2.45-1.37-1.6,0-2.91,1.41-2.91,3.2s1.3,3.22,2.91,3.22h0Z"/>
      <path class="cls-2" d="M290.85,114.58c-2.94,0-5.36-2.5-5.36-5.58s2.42-5.58,5.36-5.58,5.36,2.48,5.36,5.58-2.4,5.58-5.36,5.58ZM290.85,105.81c-1.6,0-2.91,1.41-2.91,3.2s1.3,3.2,2.91,3.2,2.91-1.41,2.91-3.2-1.28-3.2-2.91-3.2Z"/>
      <path class="cls-2" d="M300.03,114.3h-2.45v-10.6h2.45v.86c.66-.72,1.6-1.15,2.62-1.15,1.43,0,2.59.74,3.21,1.87.66-1.17,1.81-1.87,3.13-1.87,2.23,0,3.72,1.78,3.72,4.06v6.83h-2.45v-6.27c0-1.31-.79-2.21-1.94-2.21s-1.94.86-1.94,2.21v6.27h-2.45v-6.27c0-1.31-.79-2.21-1.94-2.21s-1.94.86-1.94,2.21v6.27h-.02Z"/>
      <path class="cls-2" d="M316.88,103.7v1c.87-.8,1.96-1.27,3.15-1.27,2.91,0,5.21,2.52,5.21,5.58s-2.3,5.58-5.21,5.58c-1.19,0-2.26-.47-3.13-1.25v5.27h-2.47v-14.9h2.45ZM319.83,112.23c1.62,0,2.96-1.41,2.96-3.22s-1.34-3.24-2.96-3.24-2.96,1.46-2.96,3.24,1.32,3.22,2.96,3.22Z"/>
      <path class="cls-2" d="M326.6,114.3v-14.35h2.47v14.35h-2.47Z"/>
      <path class="cls-2" d="M335.49,103.45c2.93,0,5,2.36,5,5.66v.78h-7.53c.32,1.37,1.38,2.38,2.74,2.38,1.04,0,1.85-.39,2.57-1.39l1.72,1.39c-.98,1.46-2.45,2.3-4.27,2.3-2.98,0-5.28-2.34-5.28-5.58,0-2.95,2.17-5.53,5.06-5.53h-.01ZM333,107.84h5c-.36-1.31-1.38-2.09-2.57-2.09s-2.1.8-2.43,2.09Z"/>
      <path class="cls-2" d="M342.93,111.63v-5.62h-1.91v-2.32h1.91v-3.07h2.45v3.07h2.15v2.32h-2.15v5.14c0,.55.36.82.92.82h1.23v2.32h-1.92c-1.77,0-2.68-1.15-2.68-2.66h0Z"/>
      <path class="cls-2" d="M353.31,103.45c2.93,0,5,2.36,5,5.66v.78h-7.53c.32,1.37,1.38,2.38,2.74,2.38,1.04,0,1.85-.39,2.57-1.39l1.72,1.39c-.98,1.46-2.45,2.3-4.27,2.3-2.98,0-5.28-2.34-5.28-5.58,0-2.95,2.17-5.53,5.06-5.53h-.01ZM350.82,107.84h5c-.36-1.31-1.38-2.09-2.57-2.09s-2.1.8-2.44,2.09h.01Z"/>
      <path class="cls-2" d="M363.47,99.95h2.47v4.74c.87-.78,1.94-1.25,3.13-1.25,2.91,0,5.21,2.5,5.21,5.58s-2.3,5.58-5.21,5.58c-1.19,0-2.28-.47-3.15-1.27v.98h-2.45v-14.35h0ZM368.86,112.25c1.62,0,2.96-1.46,2.96-3.24s-1.34-3.22-2.96-3.22-2.96,1.41-2.96,3.22,1.32,3.24,2.96,3.24Z"/>
      <path class="cls-2" d="M375.64,103.7h2.47v6.21c0,1.31.81,2.28,2.02,2.28s2.04-.92,2.04-2.28v-6.21h2.47v10.6h-2.47v-.94c-.68.76-1.62,1.19-2.68,1.19-2.28,0-3.85-1.8-3.85-4.1v-6.74h0Z"/>
      <path class="cls-2" d="M385.77,110.96h2.34c.25,1.07,1.11,1.52,2.17,1.52.91,0,1.4-.45,1.4-1.09,0-.43-.32-.8-.98-.98l-2.02-.51c-1.81-.47-2.74-1.5-2.74-3.12,0-2.03,1.55-3.34,3.64-3.34,2.49,0,4,1.6,4.28,3.63h-2.32c-.26-1.11-1.17-1.56-1.98-1.56s-1.21.43-1.21.98.4.92,1.17,1.13l1.87.49c1.79.47,2.68,1.5,2.68,3.07,0,1.91-1.43,3.36-3.79,3.36-2.57,0-4.13-1.56-4.51-3.59h0Z"/>
      <path class="cls-2" d="M395.14,101.07c0-.84.62-1.48,1.4-1.48s1.36.64,1.36,1.48-.58,1.5-1.36,1.5-1.4-.66-1.4-1.5ZM397.76,114.3h-2.47v-10.6h2.47v10.6Z"/>
      <path class="cls-2" d="M408.46,114.3h-2.47v-6.21c0-1.37-.81-2.28-2.02-2.28s-2.04.86-2.04,2.28v6.21h-2.47v-10.6h2.47v.9c.68-.76,1.62-1.19,2.68-1.19,2.28,0,3.85,1.82,3.85,4.14v6.74h0Z"/>
      <path class="cls-2" d="M414.88,103.45c2.93,0,5,2.36,5,5.66v.78h-7.53c.32,1.37,1.38,2.38,2.74,2.38,1.04,0,1.85-.39,2.57-1.39l1.72,1.39c-.98,1.46-2.45,2.3-4.27,2.3-2.98,0-5.28-2.34-5.28-5.58,0-2.95,2.17-5.53,5.06-5.53h-.01ZM412.39,107.84h5c-.36-1.31-1.38-2.09-2.57-2.09s-2.1.8-2.43,2.09Z"/>
      <path class="cls-2" d="M420.69,110.96h2.34c.25,1.07,1.11,1.52,2.17,1.52.91,0,1.4-.45,1.4-1.09,0-.43-.32-.8-.98-.98l-2.02-.51c-1.81-.47-2.74-1.5-2.74-3.12,0-2.03,1.55-3.34,3.64-3.34,2.49,0,4,1.6,4.28,3.63h-2.32c-.26-1.11-1.17-1.56-1.98-1.56s-1.21.43-1.21.98.4.92,1.17,1.13l1.87.49c1.79.47,2.68,1.5,2.68,3.07,0,1.91-1.43,3.36-3.79,3.36-2.57,0-4.13-1.56-4.51-3.59h0Z"/>
      <path class="cls-2" d="M429.83,110.96h2.34c.25,1.07,1.11,1.52,2.17,1.52.91,0,1.4-.45,1.4-1.09,0-.43-.32-.8-.98-.98l-2.02-.51c-1.81-.47-2.74-1.5-2.74-3.12,0-2.03,1.55-3.34,3.64-3.34,2.49,0,4,1.6,4.28,3.63h-2.32c-.26-1.11-1.17-1.56-1.98-1.56s-1.21.43-1.21.98.4.92,1.17,1.13l1.87.49c1.79.47,2.68,1.5,2.68,3.07,0,1.91-1.43,3.36-3.79,3.36-2.57,0-4.13-1.56-4.51-3.59h0Z"/>
      <path class="cls-2" d="M449.97,99.68c3.94,0,7.02,3.3,7.02,7.44s-3.08,7.44-7.02,7.44-7.04-3.3-7.04-7.44,3.08-7.44,7.04-7.44ZM449.97,112.02c2.47,0,4.42-2.11,4.42-4.9s-1.94-4.9-4.42-4.9-4.44,2.13-4.44,4.9,1.96,4.9,4.44,4.9Z"/>
      <path class="cls-2" d="M460.75,109.85c.19,1.48,1.17,2.4,2.79,2.4,1.47,0,2.23-.76,2.23-1.78,0-.84-.62-1.5-1.62-1.76l-2.25-.62c-2.36-.66-3.51-1.95-3.51-4.1,0-2.6,1.98-4.28,4.57-4.28,2.74,0,4.66,1.87,5.02,4.59h-2.49c-.28-1.41-1.13-2.3-2.55-2.3-1.15,0-2.02.66-2.02,1.78,0,.92.6,1.46,1.62,1.74l2.23.64c2.47.7,3.53,1.93,3.53,4.08,0,2.44-1.87,4.3-4.78,4.3s-5.04-1.91-5.25-4.69h2.48Z"/>
    </g>
    <path class="cls-2" d="M332.06,37.55c1.63-1.32,2.93-2.55,4.46-3.5,7.56-4.64,17.87-3.9,24.65,1.81.87.73,1.64,1.55,2.29,2.49,1.41,2.03,1.45,2.04,3.11.11,2.65-3.08,5.82-5.34,9.74-6.49,8.45-2.47,18.85-.21,23.82,7.72,2.51,4,3.43,8.46,3.44,13.1.05,12.23,0,24.47.04,36.71,0,1.08-.4,1.27-1.35,1.26-5.04-.03-10.08-.05-15.12.02-1.28.02-1.66-.35-1.65-1.63.05-10.54.02-21.08.03-31.62,0-1.34-.06-2.67-.37-3.98-.9-3.85-3.22-6.04-6.91-6.46-4.24-.49-7.92,1.36-9.55,4.74-.85,1.76-1.11,3.63-1.11,5.54-.01,10.49-.05,20.97.02,31.46.01,1.58-.44,1.97-1.98,1.94-4.68-.1-9.36-.09-14.03.01-1.47.03-1.92-.35-1.92-1.85.06-10.49.02-20.97.03-31.46,0-2.4-.25-4.73-1.56-6.82-2.02-3.21-5.08-4.01-8.58-3.48-3.71.57-6.11,2.75-7.13,6.38-.34,1.2-.4,2.43-.4,3.67,0,10.64-.02,21.28.03,31.92,0,1.31-.38,1.63-1.64,1.61-4.99-.06-9.97-.04-14.96.02-1.07.01-1.4-.29-1.4-1.38.02-17.99.01-35.99-.02-53.98,0-1.03.22-1.55,1.36-1.76,5.2-.98,10.38-2.04,15.56-3.13,1.02-.22,1.13.16,1.11.99-.03,1.89-.01,3.79-.01,6.03h0Z"/>
    <path class="cls-2" d="M137.23,38.13v-5.83c0-6.07.02-12.13-.03-18.2,0-1.24.23-1.88,1.61-2.2,5.01-1.15,9.98-2.46,14.95-3.75,1.08-.28,1.52-.23,1.52,1.1-.04,26.84-.03,53.68-.02,80.52,0,.96-.22,1.33-1.28,1.32-4.99-.06-9.98-.08-14.96.02-1.55.03-1.96-.5-1.83-1.93.11-1.27.02-2.56.02-3.83-.53-.28-.68.19-.91.39-13,11.21-33.76,7.49-41.61-7.86-6.52-12.74-5.6-25.36,3.22-36.8,5.91-7.67,14.25-10.4,23.81-9.69,5.79.43,10.85,2.57,15.51,6.73h0ZM123.54,47c-8.44,0-14.35,6.27-14.35,15.18,0,8.24,6.16,14.53,14.21,14.52,8.04,0,13.87-6.22,13.85-14.77-.02-8.96-5.52-14.94-13.72-14.93h0Z"/>
    <path class="cls-2" d="M244.42,38.31c4.48-4.34,9.48-6.2,15.18-6.58,12.23-.81,21.47,7.03,22.52,19.28.35,4.05.14,8.12.16,12.18.06,8.48.05,16.96.08,25.45,0,2.68.02,2.72-2.6,2.74-4.63.03-9.25-.02-13.88.04-1.16.02-1.47-.31-1.47-1.47.04-10.49.01-20.98,0-31.47,0-.72-.04-1.44-.09-2.16-.58-8.2-6.94-9.74-12.26-8.52-4.88,1.12-7.6,4.45-7.64,9.47-.07,10.18-.05,20.36-.01,30.54.01,3.61.09,3.62-3.54,3.63-4.32,0-8.64-.04-12.96.03-1.11.02-1.36-.34-1.36-1.39.03-18.2.04-36.4,0-54.61,0-1,.36-1.32,1.27-1.5,5.19-1.03,10.37-2.1,15.55-3.19.89-.19,1.06.14,1.05.93-.04,2.04-.01,4.09-.01,6.6h.01Z"/>
    <path class="cls-2" d="M441.03,90.78c-7.32.05-13.66-1.29-19.49-4.79-4.63-2.78-8.13-6.61-10.57-11.36-7.23-14.12-3.54-32.07,8.79-41.2,11.66-8.63,29.63-7.57,39.66,2.39,6.37,6.32,8.92,14.23,8.71,23.12-.02.94-.33,1.33-1.28,1.52-13.92,2.68-27.83,5.39-41.75,8.09-.3.06-.6.13-.91.16-.89.08-.98.43-.54,1.18,2.52,4.26,6.21,7.01,10.98,8.1,8.59,1.96,16.43.3,23.25-5.43.95-.8,1.39-.81,2.09.23,1.72,2.56,3.5,5.08,5.35,7.55.72.96.46,1.48-.34,2.15-4.89,4.08-10.48,6.61-16.76,7.66-2.59.43-5.19.72-7.21.63h.02ZM438.4,40.55c-9.54.05-16.77,6.47-17.95,15.9-.16,1.28.14,1.56,1.45,1.29,10.16-2.04,20.33-4.03,30.51-5.98,1.36-.26,1.49-.76,1-1.95-2.21-5.34-8.57-9.3-15.02-9.27h.01Z"/>
    <g>
      <path class="cls-2" d="M307,61.69c0,9.14-.02,18.29.02,27.43,0,1.22-.28,1.69-1.6,1.67-5.09-.07-10.17-.04-15.26,0-1.02.01-1.32-.31-1.32-1.31.03-18.55.05-37.09.02-55.64,0-1.12.4-1.36,1.43-1.35,5.09.04,10.17.06,15.26,0,1.13,0,1.49.27,1.49,1.45-.05,9.25-.03,18.49-.03,27.74h-.01,0Z"/>
      <path class="cls-2" d="M307.02,8.71c0,2.16-.03,4.31.01,6.47.02.81-.26,1.17-1.08,1.35-5.21,1.18-10.41,2.39-15.6,3.64-1.02.24-1.35.03-1.34-1.06.04-4.16.02-8.32,0-12.48,0-.79.13-1.31,1.06-1.54,5.19-1.27,10.36-2.59,15.52-3.95,1.07-.28,1.48-.11,1.44,1.09-.07,2.15-.02,4.31-.02,6.47h0Z"/>
    </g>
    <path class="cls-2" d="M164.67,119.28c.82-2.91,2.26-4.99,3.41-7.19,4.23-8.13,8.49-16.24,12.92-24.27,1.09-1.98,1.02-3.52.12-5.49-6.9-15.22-13.68-30.49-20.58-45.71-.92-2.04-.9-2.79,1.65-2.68,3.95.17,7.92.18,11.86-.03,2.3-.12,3.32.8,4.13,2.83,3.61,9.01,7.34,17.96,11.09,26.91.35.83.33,2.31,1.45,2.28,1.07-.03,1.1-1.48,1.47-2.34,3.97-9.15,7.94-18.29,11.8-27.49.66-1.57,1.46-2.21,3.17-2.16,4.22.11,8.45.11,12.68.03,1.98-.04,2.31.48,1.49,2.3-7.76,17.29-15.46,34.62-23.18,51.93-3.7,8.29-7.41,16.56-11.11,24.85-.4.9-.69,1.83-1.88,2.07-6.68,1.34-13.35,2.71-20.49,4.17h0Z"/>
  </g>
</svg>
